<svg width="24" height="24" viewBox="0 0 24 24" fill="none" xmlns="http://www.w3.org/2000/svg">
<path d="M12.0018 14.003V12.363M12.0018 14.003C10.3352 14.003 8.66884 13.821 7.00284 13.457M12.0018 14.003C13.6685 14.003 15.3352 13.821 17.0018 13.457M7.00284 13.457C5.70036 13.1696 4.42192 12.7825 3.17884 12.299C2.66884 12.103 2.41384 12.004 2.23884 11.779C1.94884 11.405 2.00184 10.884 2.00184 10.439C2.00184 9.20596 2.00184 7.58796 2.30184 7.26596C2.87184 6.65596 3.95884 7.21796 4.59184 7.42296C9.53184 9.02496 14.4718 9.02496 19.4118 7.42296C20.0438 7.21796 21.1318 6.65696 21.7008 7.26596C22.0008 7.58796 22.0008 9.20596 22.0008 10.439C22.0008 11.057 22.0008 11.366 21.8658 11.622C21.6558 12.014 21.2158 12.149 20.8248 12.3C19.582 12.7827 18.3039 13.1702 17.0018 13.457M7.00284 13.457L7.00184 11.815M17.0018 13.457V11.815M19.0018 19.01C14.3352 20.3453 9.66851 20.3453 5.00184 19.01" stroke="#FFAA00" stroke-width="1.5" stroke-linecap="round" stroke-linejoin="round"/>
<path d="M19.1898 2.99807C18.6138 4.30907 18.0828 6.55707 18.0828 7.58807M4.81581 2.99707C5.39281 4.30807 5.92281 6.55607 5.92281 7.58707M5.39981 15.5101C4.95981 16.8911 3.80081 19.6211 4.00481 21.0021M18.6148 15.5101C19.0538 16.8911 20.2128 19.6211 20.0098 21.0021" stroke="#FFAA00" stroke-width="1.5" stroke-linecap="round" stroke-linejoin="round"/>
</svg>
